<?xml version="1.0" standalone="no"?>
<!DOCTYPE svg PUBLIC "-//W3C//DTD SVG 20010904//EN"
 "http://www.w3.org/TR/2001/REC-SVG-20010904/DTD/svg10.dtd">
<svg version="1.0" xmlns="http://www.w3.org/2000/svg"
 width="600.000000pt" height="78.000000pt" viewBox="0 0 600.000000 78.000000"
 preserveAspectRatio="xMidYMid meet">

<g transform="translate(0.000000,78.000000) scale(0.100000,-0.100000)"
fill="#000000" stroke="none">
<path d="M1830 766 c-143 -30 -228 -125 -256 -288 -23 -130 9 -279 76 -360 39
-47 136 -95 217 -108 97 -16 250 23 292 74 11 13 6 23 -30 65 l-43 49 -30 -22
c-63 -47 -125 -56 -203 -30 -57 19 -87 45 -116 99 -19 34 -22 56 -22 145 0 88
4 112 22 146 59 111 177 143 297 79 l45 -24 41 47 c22 26 40 50 40 54 0 15
-94 62 -149 74 -67 16 -108 16 -181 0z"/>
<path d="M245 758 c-2 -7 -36 -116 -74 -243 -38 -126 -86 -283 -105 -347 -20
-64 -36 -121 -36 -127 0 -7 26 -11 68 -11 l68 0 24 75 24 75 141 0 142 0 22
-75 23 -75 69 0 c62 0 70 2 65 18 -3 9 -30 100 -61 202 -31 102 -80 260 -107
353 l-51 167 -104 0 c-74 0 -105 -4 -108 -12z m155 -275 c24 -82 45 -154 48
-160 3 -10 -21 -13 -98 -13 -77 0 -101 3 -97 13 2 6 24 78 48 159 24 82 47
148 50 148 3 0 25 -66 49 -147z"/>
<path d="M852 398 l3 -373 68 -3 67 -3 0 131 0 130 80 0 80 0 60 -125 59 -125
76 0 c41 0 75 2 75 6 0 3 -27 61 -60 130 -33 68 -60 127 -60 129 0 3 18 21 39
41 50 45 76 110 75 190 -1 123 -64 212 -166 233 -27 6 -128 11 -224 11 l-174
0 2 -372z m388 215 c40 -35 50 -94 26 -145 -23 -48 -51 -58 -166 -58 l-100 0
0 115 0 115 105 0 c100 0 106 -1 135 -27z"/>
<path d="M2380 400 l0 -370 70 0 70 0 0 150 0 150 165 0 165 0 0 -152 0 -153
70 3 70 4 0 369 0 369 -70 0 -70 0 0 -155 0 -155 -165 0 -165 0 0 155 0 155
-70 0 -70 0 0 -370z"/>
<path d="M3230 400 l0 -370 70 0 70 0 0 370 0 370 -70 0 -70 0 0 -370z"/>
<path d="M3725 758 c-2 -7 -16 -62 -30 -123 -14 -60 -50 -215 -80 -344 -30
-128 -55 -242 -55 -252 0 -17 8 -19 64 -19 36 0 67 4 70 9 4 5 31 123 61 262
30 139 56 253 57 255 2 1 50 -89 108 -202 94 -182 108 -204 130 -204 27 0 23
-7 163 262 39 76 74 138 77 138 4 0 17 -51 30 -112 12 -62 36 -178 54 -258
l31 -145 73 -3 c39 -2 72 0 72 3 0 3 -16 72 -35 153 -20 81 -56 233 -81 337
-25 105 -49 204 -53 220 -7 29 -9 30 -77 33 l-70 3 -57 -118 c-31 -65 -72
-152 -91 -193 l-35 -75 -92 193 -93 192 -68 0 c-46 0 -70 -4 -73 -12z"/>
<path d="M4710 400 l0 -370 245 0 246 0 -3 63 -3 62 -172 3 -173 2 0 95 0 95
140 0 140 0 0 65 0 65 -140 0 -140 0 0 80 0 80 173 2 172 3 3 63 3 62 -246 0
-245 0 0 -370z"/>
<path d="M5370 400 l0 -370 170 0 c145 0 177 3 223 20 134 50 209 176 210 350
0 179 -86 313 -226 355 -36 11 -98 15 -214 15 l-163 0 0 -370z m337 229 c124
-47 164 -293 67 -409 -42 -49 -73 -60 -174 -60 l-90 0 0 240 0 240 84 0 c47 0
97 -5 113 -11z"/>
</g>
</svg>
